<?xml version="1.0" encoding="UTF-8"?>
<svg version="1.1" xmlns="http://www.w3.org/2000/svg" width="1056" height="697">
<path d="M0 0 C5.95791083 3.18723167 11.58917506 6.63074709 17.125 10.5 C18.80279453 11.6597095 20.48122674 12.81849675 22.16015625 13.9765625 C23.0845752 14.6149707 24.00899414 15.25337891 24.96142578 15.91113281 C30.80744371 19.92997657 36.68695872 23.89950483 42.5625 27.875 C43.89365938 28.77616999 45.22479516 29.67737484 46.5559082 30.57861328 C50.7034527 33.38646076 54.85168534 36.19329054 59 39 C60.3912783 39.94140291 61.78255435 40.88280916 63.17382812 41.82421875 C73.11501916 48.55075995 83.05740505 55.27553421 93 62 C98.72925863 65.87486404 104.45845807 69.74981556 110.1875 73.625 C110.89331207 74.10241638 111.59912415 74.57983276 112.32632446 75.07171631 C123.02419058 82.3080716 133.718383 89.54983239 144.4105835 96.79455566 C154.54168665 103.65894771 164.67599153 110.51859249 174.8125 117.375 C175.51807037 117.85225525 176.22364075 118.3295105 176.95059204 118.82122803 C181.96696184 122.21429916 186.98346568 125.60717211 192 129 C197.72925863 132.87486404 203.45845807 136.74981556 209.1875 140.625 C209.89331207 141.10241638 210.59912415 141.57983276 211.32632446 142.07171631 C222.02419058 149.3080716 232.718383 156.54983239 243.4105835 163.79455566 C253.54168665 170.65894771 263.67599153 177.51859249 273.8125 184.375 C274.51807037 184.85225525 275.22364075 185.3295105 275.95059204 185.82122803 C280.96696184 189.21429916 285.98346568 192.60717211 291 196 C296.72925863 199.87486404 302.45845807 203.74981556 308.1875 207.625 C308.89331207 208.10241638 309.59912415 208.57983276 310.32632446 209.07171631 C321.02419058 216.3080716 331.718383 223.54983239 342.4105835 230.79455566 C352.54168665 237.65894771 362.67599153 244.51859249 372.8125 251.375 C373.51807037 251.85225525 374.22364075 252.3295105 374.95059204 252.82122803 C379.96696184 256.21429916 384.98346568 259.60717211 390 263 C395.72925863 266.87486404 401.45845807 270.74981556 407.1875 274.625 C407.89331207 275.10241638 408.59912415 275.57983276 409.32632446 276.07171631 C419.38699156 282.87705121 429.44464205 289.68682333 439.5 296.5 C450.09296094 303.67732266 460.6879254 310.85167715 471.28564453 318.02197266 C472.78780805 319.03834107 474.28992494 320.05477838 475.79199219 321.07128906 C477.88332158 322.48653808 479.97483676 323.90151211 482.06640625 325.31640625 C482.68064957 325.73213394 483.29489288 326.14786163 483.92774963 326.57618713 C486.63459273 328.40687113 489.26191394 330.13700257 492.16179848 331.65388107 C495 334 495 334 495.73828697 337.49072647 C495.76346262 338.9169666 495.75541743 340.34402091 495.7215271 341.77008057 C495.72665365 342.55754032 495.7317802 343.34500007 495.7370621 344.15632224 C495.74695474 346.79807901 495.71393409 349.43755514 495.68115234 352.07910156 C495.67946011 353.97129258 495.68040948 355.86348754 495.68380737 357.75567627 C495.68553143 362.89611536 495.6502148 368.03571727 495.60836363 373.17596149 C495.57089808 378.54644355 495.56733456 383.91694404 495.56021118 389.28753662 C495.54155007 399.45905466 495.49229577 409.63018655 495.43211424 419.80153441 C495.36508859 431.38055423 495.33207 442.95959234 495.30194163 454.5387578 C495.23919797 478.3593861 495.1336382 502.17967143 495 526 C493.8872633 525.05280979 492.77546725 524.10451446 491.6640625 523.15576172 C491.0448291 522.62779999 490.4255957 522.09983826 489.78759766 521.55587769 C483.62899033 516.19558888 478.07677748 510.1933139 472.77734375 503.99609375 C470.05022777 500.93333273 467.10595363 498.09776507 464.1875 495.21875 C461.59803119 492.59228878 459.21163036 489.83023542 456.8125 487.03125 C454.7890712 484.76361428 452.66346653 482.6342305 450.5 480.5 C447.73439592 477.77170593 445.08712969 475.01483166 442.5625 472.0625 C439.84380752 468.8896408 436.97248325 465.93661618 434 463 C430.41441301 459.45767801 427.05108338 455.82444339 423.77734375 451.99609375 C421.05022777 448.93333273 418.10595363 446.09776507 415.1875 443.21875 C412.59803119 440.59228878 410.21163036 437.83023542 407.8125 435.03125 C405.7890712 432.76361428 403.66346653 430.6342305 401.5 428.5 C398.0928121 425.13885518 394.92541826 421.66298797 391.8125 418.03125 C389.7890712 415.76361428 387.66346653 413.6342305 385.5 411.5 C382.0928121 408.13885518 378.92541826 404.66298797 375.8125 401.03125 C373.7890712 398.76361428 371.66346653 396.6342305 369.5 394.5 C366.0928121 391.13885518 362.92541826 387.66298797 359.8125 384.03125 C357.7890712 381.76361428 355.66346653 379.6342305 353.5 377.5 C350.0928121 374.13885518 346.92541826 370.66298797 343.8125 367.03125 C341.7890712 364.76361428 339.66346653 362.6342305 337.5 360.5 C334.0928121 357.13885518 330.92541826 353.66298797 327.8125 350.03125 C325.7890712 347.76361428 323.66346653 345.6342305 321.5 343.5 C318.0928121 340.13885518 314.92541826 336.66298797 311.8125 333.03125 C309.7890712 330.76361428 307.66346653 328.6342305 305.5 326.5 C302.73439592 323.77170593 300.08712969 321.01483166 297.5625 318.0625 C294.84380752 314.8896408 291.97248325 311.93661618 289 309 C285.41441301 305.45767801 282.05108338 301.82444339 278.77734375 297.99609375 C276.05022777 294.93333273 273.10595363 292.09776507 270.1875 289.21875 C267.59803119 286.59228878 265.21163036 283.83023542 262.8125 281.03125 C260.7890712 278.76361428 258.66346653 276.6342305 256.5 274.5 C253.0928121 271.13885518 249.92541826 267.66298797 246.8125 264.03125 C244.7890712 261.76361428 242.66346653 259.6342305 240.5 257.5 C237.0928121 254.13885518 233.92541826 250.66298797 230.8125 247.03125 C228.7890712 244.76361428 226.66346653 242.6342305 224.5 240.5 C221.0928121 237.13885518 217.92541826 233.66298797 214.8125 230.03125 C212.7890712 227.76361428 210.66346653 225.6342305 208.5 223.5 C205.0928121 220.13885518 201.92541826 216.66298797 198.8125 213.03125 C196.7890712 210.76361428 194.66346653 208.6342305 192.5 206.5 C189.0928121 203.13885518 185.92541826 199.66298797 182.8125 196.03125 C180.7890712 193.76361428 178.66346653 191.6342305 176.5 189.5 C173.73439592 186.77170593 171.08712969 184.01483166 168.5625 181.0625 C165.84380752 177.8896408 162.97248325 174.93661618 160 172 C156.41441301 168.45767801 153.05108338 164.82444339 149.77734375 160.99609375 C147.05022777 157.93333273 144.10595363 155.09776507 141.1875 152.21875 C138.59803119 149.59228878 136.21163036 146.83023542 133.8125 144.03125 C131.7890712 141.76361428 129.66346653 139.6342305 127.5 137.5 C124.0928121 134.13885518 120.92541826 130.66298797 117.8125 127.03125 C115.7890712 124.76361428 113.66346653 122.6342305 111.5 120.5 C108.0928121 117.13885518 104.92541826 113.66298797 101.8125 110.03125 C99.7890712 107.76361428 97.66346653 105.6342305 95.5 103.5 C92.0928121 100.13885518 88.92541826 96.66298797 85.8125 93.03125 C83.7890712 90.76361428 81.66346653 88.6342305 79.5 86.5 C76.0928121 83.13885518 72.92541826 79.66298797 69.8125 76.03125 C67.7890712 73.76361428 65.66346653 71.6342305 63.5 69.5 C60.0928121 66.13885518 56.92541826 62.66298797 53.8125 59.03125 C51.7890712 56.76361428 49.66346653 54.6342305 47.5 52.5 C44.73439592 49.77170593 42.08712969 47.01483166 39.5625 44.0625 C36.84380752 40.8896408 33.97248325 37.93661618 31 35 C27.41441301 31.45767801 24.05108338 27.82444339 20.77734375 23.99609375 C18.05755178 20.94155815 15.12175151 18.11326343 12.2109375 15.2421875 C9.5143361 12.50747159 6.9975184 9.64926073 4.5078125 6.7265625 C3.02203902 4.9695883 3.02203902 4.9695883 1.3046875 3.3984375 C0 2 0 2 0 0 Z " fill="#465B97" transform="translate(0,0)"/>
<path d="M0 0 C0.66 0 1.32 0 2 0 C0.5158627 3.48654476 -1.46214052 5.64191072 -4.1875 8.25 C-7.75619013 11.73304157 -11.0758191 15.31881213 -14.3203125 19.1015625 C-16.52165393 21.58959026 -18.88088515 23.89194077 -21.25 26.21875 C-23.08242487 28.08389674 -24.79353135 30.01927746 -26.5 32 C-29.28239332 35.22956367 -32.21019429 38.23322653 -35.25 41.21875 C-37.08242487 43.08389674 -38.79353135 45.01927746 -40.5 47 C-43.25343684 50.19595347 -46.14677179 53.17230063 -49.15649414 56.12524414 C-50.93336641 57.93223688 -52.59436873 59.79344934 -54.24609375 61.71484375 C-57.91403503 65.93292779 -61.71661251 70.00692347 -65.5625 74.0625 C-66.97812478 75.56095214 -68.39348445 77.05965478 -69.80859375 78.55859375 C-70.51226074 79.30351074 -71.21592773 80.04842773 -71.94091797 80.81591797 C-75.01356964 84.07510007 -78.07071291 87.34861448 -81.125 90.625 C-81.97880249 91.54067749 -81.97880249 91.54067749 -82.84985352 92.47485352 C-83.99408109 93.70221498 -85.13820594 94.9296722 -86.28222656 96.15722656 C-89.18659237 99.27293906 -92.09343299 102.38634111 -95 105.5 C-96.16667826 106.74998918 -97.33334493 107.99998917 -98.5 109.25 C-161.5 176.75 -161.5 176.75 -163.25048828 178.62548828 C-164.41557375 179.87381737 -165.58061291 181.12218967 -166.74560547 182.37060547 C-169.68608369 185.52152888 -172.62739654 188.67166566 -175.5703125 191.8203125 C-181.04307116 197.67717704 -186.50761523 203.54084206 -191.9375 209.4375 C-197.65609455 215.64636923 -203.4296835 221.80286796 -209.20703125 227.95703125 C-212.83228799 231.81922077 -216.44911567 235.68920379 -220.0625 239.5625 C-220.63597168 240.17722168 -221.20944336 240.79194336 -221.80029297 241.42529297 C-222.9556132 242.66385609 -224.11088674 243.90246277 -225.26611328 245.14111328 C-228.17663651 248.26146303 -231.08838287 251.38067102 -234 254.5 C-235.16667246 255.74999459 -236.33333913 256.99999459 -237.5 258.25 C-300.5 325.75 -300.5 325.75 -302.25048828 327.62548828 C-303.41557375 328.87381737 -304.58061291 330.12218967 -305.74560547 331.37060547 C-308.68608369 334.52152888 -311.62739654 337.67166566 -314.5703125 340.8203125 C-320.04307116 346.67717704 -325.50761523 352.54084206 -330.9375 358.4375 C-336.65609455 364.64636923 -342.4296835 370.80286796 -348.20703125 376.95703125 C-351.83228799 380.81922077 -355.44911567 384.68920379 -359.0625 388.5625 C-359.63597168 389.17722168 -360.20944336 389.79194336 -360.80029297 390.42529297 C-361.9556132 391.66385609 -363.11088674 392.90246277 -364.26611328 394.14111328 C-367.17663651 397.26146303 -370.08838287 400.38067102 -373 403.5 C-374.16667246 404.74999459 -375.33333913 405.99999459 -376.5 407.25 C-439.5 474.75 -439.5 474.75 -441.25048828 476.62548828 C-442.41557375 477.87381737 -443.58061291 479.12218967 -444.74560547 480.37060547 C-447.68608369 483.52152888 -450.62739654 486.67166566 -453.5703125 489.8203125 C-459.1436098 495.78450408 -464.71041865 501.75446023 -470.25 507.75 C-470.97799805 508.53661011 -470.97799805 508.53661011 -471.72070312 509.33911133 C-474.13745747 511.95658056 -476.53306512 514.58985957 -478.8984375 517.25390625 C-479.35831055 517.76920898 -479.81818359 518.28451172 -480.29199219 518.81542969 C-481.54550896 520.22322545 -482.79251182 521.63681357 -484.0390625 523.05078125 C-486 525 -486 525 -488 525 C-488.42098439 500.1743296 -488.73813691 475.34919597 -488.93261909 450.52067184 C-489.02533364 438.99140675 -489.15166032 427.46436258 -489.35791016 415.93652344 C-489.53765212 405.88546345 -489.65352162 395.83601182 -489.69359291 385.78338933 C-489.7170111 380.46235922 -489.77178181 375.14592879 -489.90314102 369.82637787 C-490.6726466 337.4418554 -490.6726466 337.4418554 -486.24076843 330.07621193 C-482.17460233 325.81523361 -477.68485302 323.53324532 -472.12781143 321.74667549 C-469.11695043 320.69012692 -466.74577437 318.97159127 -464.203125 317.07421875 C-463.38199219 316.51347656 -462.56085937 315.95273437 -461.71484375 315.375 C-460.49474609 314.5396875 -460.49474609 314.5396875 -459.25 313.6875 C-457.38022635 312.41012988 -455.51043414 311.13278693 -453.640625 309.85546875 C-452.70798828 309.21786621 -451.77535156 308.58026367 -450.81445312 307.92333984 C-446.21229806 304.77832097 -441.60596174 301.63943994 -437 298.5 C-435.17055571 297.25262941 -433.34112864 296.00523354 -431.51171875 294.7578125 C-427.80627881 292.23134626 -424.10051692 289.70535316 -420.39453125 287.1796875 C-411.75820486 281.29347622 -403.12413521 275.4040623 -394.5 269.5 C-384.94149987 262.95627371 -375.37059362 256.43081159 -365.79833984 249.90722656 C-361.19844649 246.77213959 -356.59924642 243.63603592 -352 240.5 C-346.46519571 236.72604585 -340.93023417 232.95232344 -335.39453125 229.1796875 C-326.75820486 223.29347622 -318.12413521 217.4040623 -309.5 211.5 C-299.94149987 204.95627371 -290.37059362 198.43081159 -280.79833984 191.90722656 C-276.19844649 188.77213959 -271.59925511 185.63602319 -267 182.5 C-265.16667011 181.24999495 -263.33333678 179.99999495 -261.5 178.75 C-260.5925 178.13125 -259.685 177.5125 -258.75 176.875 C-250.50000001 171.25 -250.50000001 171.25 -247.74926758 169.37451172 C-245.91836187 168.12615953 -244.08746992 166.87778718 -242.2565918 165.62939453 C-237.63622903 162.47901643 -233.01561801 159.32900355 -228.39453125 156.1796875 C-219.75820486 150.29347622 -211.12413521 144.4040623 -202.5 138.5 C-192.94149987 131.95627371 -183.37059362 125.43081159 -173.79833984 118.90722656 C-169.19844649 115.77213959 -164.59924642 112.63603592 -160 109.5 C-154.46519571 105.72604585 -148.93023417 101.95232344 -143.39453125 98.1796875 C-134.75820486 92.29347622 -126.12413521 86.4040623 -117.5 80.5 C-107.94149987 73.95627371 -98.37059362 67.43081159 -88.79833984 60.90722656 C-84.19844649 57.77213959 -79.59925511 54.63602319 -75 51.5 C-73.16667011 50.24999495 -71.33333678 48.99999495 -69.5 47.75 C-68.5925 47.13125 -67.685 46.5125 -66.75 45.875 C-58.49999999 40.24999999 -58.49999999 40.24999999 -55.74926758 38.37451172 C-53.91836187 37.12615953 -52.08746992 35.87778718 -50.2565918 34.62939453 C-45.63622903 31.47901643 -41.01561801 28.32900355 -36.39453125 25.1796875 C-31.82902371 22.06812525 -27.26429676 18.95542123 -22.70019531 15.84179688 C-20.86903955 14.59276984 -19.03765181 13.34408285 -17.20605469 12.09570312 C-14.53247846 10.27319495 -11.85986969 8.44927671 -9.1875 6.625 C-7.96800659 5.79427979 -7.96800659 5.79427979 -6.72387695 4.94677734 C-5.98355225 4.44098145 -5.24322754 3.93518555 -4.48046875 3.4140625 C-3.82973389 2.9701416 -3.17899902 2.5262207 -2.50854492 2.06884766 C-1.0255647 1.08162074 -1.0255647 1.08162074 0 0 Z " fill="#485896" transform="translate(1054,2)"/>
<path d="M0 0 C12.07423146 -0.41959728 24.14669331 -0.73812642 36.22676659 -0.93261909 C41.83839168 -1.02604035 47.44498352 -1.15239294 53.05371094 -1.35791016 C94.3700464 -2.83267901 94.3700464 -2.83267901 104.41323853 6.12893677 C107.11857359 9.14710933 109.41911009 12.22455971 111.53033447 15.68267822 C115.41966728 21.81525428 120.82107148 26.95140213 126 32 C129.87980782 35.82718404 133.5626513 39.72076623 137.09375 43.875 C139.62250461 46.69393956 142.30646246 49.33938576 145 52 C148.26382615 55.22398087 151.46830141 58.43517847 154.4375 61.9375 C158.12208665 66.27390542 162.18348383 70.20968877 166.2265625 74.20703125 C169.81500423 77.77049543 173.22496354 81.42098831 176.5 85.27734375 C178.86470366 87.99305811 181.42333018 90.48617579 184 93 C187.22174095 91.61370741 189.02680515 90.09518618 191.2272644 87.38070679 C191.84556909 86.62906974 192.46387377 85.87743269 193.10091496 85.10301876 C193.77128001 84.27802159 194.44164507 83.45302443 195.13232422 82.60302734 C205.38890984 70.22867292 215.98754151 58.19531679 226.875 46.375 C227.36058427 45.84708563 227.84616855 45.31917127 228.34646749 44.77525949 C250.77517642 20.45625668 272.23498413 -1.99849416 307.1200943 -4.10098267 C314.63477288 -4.39059997 322.06608778 -4.10907467 329.5625 -3.5625 C331.13467411 -3.44842175 331.13467411 -3.44842175 332.73860931 -3.33203888 C345.63273393 -2.32410996 358.32449601 -0.55622848 371 2 C367.10353996 6.66449026 363.05559269 11.08282434 358.73852539 15.35913086 C357.84699516 16.24847069 357.84699516 16.24847069 356.93745422 17.15577698 C355.65856591 18.43088746 354.37852468 19.7048425 353.09742928 20.97773552 C351.06370845 22.99857656 349.03322953 25.02262639 347.00352478 27.04750061 C341.96317987 32.07454579 336.9173987 37.09612296 331.87176514 42.11785889 C327.60079609 46.36901459 323.33193682 50.6222682 319.06579399 54.87826729 C317.07660803 56.8610259 315.08440734 58.84071985 313.09205627 60.82029724 C311.85817738 62.05053942 310.62444102 63.28092458 309.39086914 64.51147461 C308.84571655 65.05146088 308.30056396 65.59144714 307.7388916 66.14779663 C304.94280845 68.94350263 302.27830034 71.80195616 299.69981384 74.80018616 C295.49440572 79.65464167 290.96531788 84.15935007 286.41210938 88.68554688 C285.46655737 89.62917497 284.52123629 90.5730345 283.5761261 91.5171051 C281.55546836 93.53462455 279.53327355 95.55058551 277.50984192 97.56532288 C274.30369543 100.75783598 271.10146587 103.95425918 267.89978027 107.15124512 C260.5260369 114.51299583 253.14726757 121.86970217 245.76844025 129.22635651 C239.00025476 135.97430844 232.23316211 142.72334699 225.47012377 149.47645807 C222.2939144 152.64771608 219.1152908 155.81652727 215.93473053 158.98342133 C213.94977209 160.96086716 211.96693557 162.94043058 209.98464012 164.92054558 C208.64111627 166.26133578 207.29507359 167.59960058 205.94892883 168.9377594 C201.62545753 173.26085704 197.4494814 177.64500882 193.48104095 182.29753876 C191.43103063 184.65403209 189.24156878 186.82635754 187 189 C183.48316644 187.49634599 181.21776358 185.46566858 178.52612305 182.76904297 C177.64808517 181.89408173 176.7700473 181.01912048 175.86540222 180.11764526 C174.91399636 179.15933607 173.96277316 178.20084549 173.01171875 177.2421875 C172.02565957 176.25493461 171.03922867 175.26805286 170.05244446 174.28152466 C167.98407803 172.21159502 165.9191089 170.13835479 163.85668945 168.0625 C161.23271145 165.42163291 158.60230084 162.78729446 155.96948528 160.15524101 C153.92981483 158.11529634 151.89277889 156.07273752 149.85657692 154.02933121 C148.88886706 153.0584707 147.92057816 152.08818695 146.95166588 151.11852646 C138.48090897 142.63407323 138.48090897 142.63407323 134.75317383 138.24658203 C129.70304372 132.37292519 124.11212575 127.00281916 118.62130737 121.54614258 C116.52448784 119.46222167 114.43092634 117.37507491 112.33813477 115.28710938 C107.89490518 110.85524306 103.44775238 106.4273267 99 102 C93.84121836 96.86490934 88.68410748 91.72816349 83.53121948 86.5871582 C81.47998551 84.54235237 79.42573709 82.50060936 77.37133789 80.45898438 C72.03904883 75.1474052 66.77940473 69.86349732 61.90304565 64.12567139 C57.53631617 59.24810479 52.79692241 54.70999878 48.14813423 50.1035347 C46.15789006 48.13084188 44.17134895 46.15448712 42.18577576 44.17709351 C36.54585145 38.56150055 30.90013 32.9517613 25.25024414 27.34619141 C21.78207729 23.90472255 18.31872888 20.45846613 14.85835075 17.00916672 C13.54006369 15.69710018 12.21988071 14.38693576 10.89779854 13.07869339 C9.05958558 11.25958106 7.22750864 9.43449827 5.39672852 7.60791016 C4.84668152 7.06662476 4.29663452 6.52533936 3.72991943 5.96765137 C0 2.22789947 0 2.22789947 0 0 Z " fill="#387AA2" transform="translate(347,111)"/>
<path d="M0 0 C4.63003233 3.86955256 9.02207622 7.88324479 13.26733398 12.16967773 C13.85047363 12.75427765 14.43361328 13.33887756 15.03442383 13.94119263 C16.28825378 15.1987997 17.5409283 16.45755963 18.7925396 17.7173748 C20.77977406 19.71749241 22.77021997 21.71436489 24.76148987 23.71046448 C29.70506048 28.66733277 34.64316182 33.62963801 39.5814209 38.59179688 C43.76211527 42.79230723 47.94490933 46.9907058 52.1304493 51.18638802 C54.07997019 53.14233464 56.02642518 55.10129631 57.97276306 57.06040955 C59.1827822 58.27406551 60.39294439 59.48757888 61.60327148 60.70092773 C62.13390701 61.23672958 62.66454254 61.77253143 63.21125793 62.3245697 C65.97403483 65.08772541 68.80020829 67.71897321 71.76356506 70.26654053 C76.79634563 74.62737066 81.47388318 79.32629048 86.1796875 84.03442383 C87.17573215 85.02746978 88.17197923 86.02031272 89.16841125 87.01296997 C91.85001707 89.68581446 94.52844078 92.36182504 97.20598984 95.03873277 C98.87990162 96.71193078 100.55452464 98.38441355 102.22940063 100.05664635 C108.07391056 105.89193652 113.91586415 111.72977168 119.75537109 117.57006836 C125.19956913 123.01486975 130.64934955 128.45403963 136.10171127 133.89066488 C140.78904377 138.56494973 145.47254134 143.24305337 150.15303421 147.92418689 C152.94628559 150.71769361 155.74107904 153.50961432 158.53973389 156.29770851 C161.16417481 158.91251256 163.783831 161.53201486 166.39980125 164.15529251 C167.82294479 165.57998937 169.25105521 166.99971928 170.67927551 168.41932678 C171.51754379 169.26178955 172.35581207 170.10425232 173.21948242 170.97224426 C173.9539006 171.70611768 174.68831879 172.43999109 175.44499207 173.1961031 C177 175 177 175 177 177 C74.78969531 185.0356253 74.78969531 185.0356253 53.34375 167.484375 C42.84556875 158.51397694 34.74134266 147.11819389 27.58265686 135.40637207 C24.0073012 129.97017411 19.42419425 125.2884571 14.81640625 120.71875 C14.11708984 120.02265625 13.41777344 119.3265625 12.69726562 118.609375 C11.99279297 117.91328125 11.28832031 117.2171875 10.5625 116.5 C9.83095703 115.77296875 9.09941406 115.0459375 8.34570312 114.296875 C6.56610176 112.52890501 4.78419082 110.76333622 3 109 C-2.53539051 113.63280454 -7.61918445 118.54402442 -12.66210938 123.70117188 C-15.52865412 126.60632328 -18.42146915 129.39549067 -21.53515625 132.03515625 C-28.2159587 137.80124355 -34.29679301 144.23141417 -40.5 150.5 C-55.67691517 165.83687262 -55.67691517 165.83687262 -61.17382812 170.39257812 C-63.24627305 172.09040662 -63.24627305 172.09040662 -65.20483398 175.13525391 C-69.43034567 179.34604483 -74.90672373 178.79452705 -80.52333069 178.83224487 C-82.07935938 178.82367244 -83.63538469 178.81446878 -85.19140625 178.8046875 C-86.81731613 178.81597234 -88.44320975 178.82986789 -90.06907654 178.84622192 C-94.36369242 178.88230047 -98.65759898 178.88264739 -102.95233154 178.87554932 C-107.21119947 178.87465303 -111.46977354 178.90749959 -115.72851562 178.9375 C-124.71435923 178.99445508 -133.69983053 179.00499324 -142.68582916 179.00071716 C-146.43492271 178.99955532 -150.18401286 179.00246009 -153.93310547 179.00488281 C-160.62207538 179.00841949 -167.31103235 179.00651609 -174 179 C-172.46374962 175.35048629 -170.27668889 173.04027316 -167.4777832 170.26660156 C-167.02056381 169.81069641 -166.56334442 169.35479126 -166.0922699 168.8850708 C-164.58298883 167.38226733 -163.06685442 165.88657335 -161.55078125 164.390625 C-160.49372679 163.33984839 -159.43719079 162.28855 -158.38114929 161.23675537 C-155.59822101 158.46712313 -152.80979129 155.70310252 -150.01971436 152.94067383 C-145.57128318 148.53534175 -141.12940906 144.12342729 -136.69099998 139.70800018 C-135.14980334 138.17690765 -133.60517189 136.64934709 -132.06013489 135.12213135 C-127.4660895 130.5671485 -123.02454716 125.95682598 -118.81632996 121.04241943 C-115.36374497 117.1600705 -111.64361022 113.53598051 -107.95483398 109.87966919 C-106.46285757 108.40068091 -104.97422447 106.91839498 -103.48632812 105.43530273 C-99.79331846 101.75552613 -96.09482888 98.08127373 -92.39648438 94.40686035 C-89.25929696 91.28954371 -86.12426398 88.17008912 -82.99194336 85.04788208 C-81.53902092 83.60134931 -80.08307719 82.15790833 -78.62695312 80.71459961 C-74.80035543 76.90208038 -71.01837766 73.1008118 -67.5 69 C-63.54962984 64.39568343 -59.26171953 60.14864984 -54.95483398 55.87966919 C-53.46285757 54.40068091 -51.97422447 52.91839498 -50.48632812 51.43530273 C-46.79331846 47.75552613 -43.09482888 44.08127373 -39.39648438 40.40686035 C-36.25929696 37.28954371 -33.12426398 34.17008912 -29.99194336 31.04788208 C-28.53902092 29.60134931 -27.08307719 28.15790833 -25.62695312 26.71459961 C-21.06812873 22.17254763 -16.63459205 17.59276296 -12.46385193 12.68994141 C-10.12876926 9.99420913 -7.60580073 7.49757056 -5.0625 5 C-4.32290039 4.26716797 -4.32290039 4.26716797 -3.56835938 3.51953125 C-2.38126771 2.34396475 -1.19099502 1.17161174 0 0 Z " fill="#386D96" transform="translate(530,518)"/>
<path d="M0 0 C0.66 0.66 1.32 1.32 2 2 C-13.84 17.84 -29.68 33.68 -46 50 C-46.66 49.67 -47.32 49.34 -48 49 C-47.12786865 48.13310547 -46.2557373 47.26621094 -45.35717773 46.37304688 C-42.09122598 43.12533208 -38.82869701 39.87419673 -35.56713867 36.62207031 C-34.16082925 35.22075867 -32.75361978 33.82034964 -31.34545898 32.42089844 C-29.30990344 30.39760962 -27.27771469 28.37098872 -25.24609375 26.34375 C-24.62600937 25.7288269 -24.00592499 25.11390381 -23.36705017 24.48034668 C-19.60572596 20.71949589 -16.04188826 16.84015693 -12.57824707 12.80310059 C-10.19369145 10.07881634 -7.64451371 7.53558746 -5.0625 5 C-4.56943359 4.51144531 -4.07636719 4.02289062 -3.56835938 3.51953125 C-2.38126771 2.34396475 -1.19099502 1.17161174 0 0 Z " fill="#67A8B5" transform="translate(530,518)"/>
<path d="M0 0 C-1.39332574 3.36720387 -2.9789286 4.9859524 -6 7 C-6.33 6.01 -6.66 5.02 -7 4 C-2.25 0 -2.25 0 0 0 Z " fill="#93C8CB" transform="translate(1056,2)"/>
</svg>
