<svg xmlns="http://www.w3.org/2000/svg" version="1.1" xmlns:xlink="http://www.w3.org/1999/xlink" xmlns:svgjs="http://svgjs.dev/svgjs" width="2000" height="1500" viewBox="0 0 2000 1500"><rect width="2000" height="1500" fill="#ffffff"></rect><g transform="matrix(0.75,0,0,0.75,251.48955173772788,426.5388815789473)"><svg viewBox="0 0 133 57" data-background-color="#ffffff" preserveAspectRatio="xMidYMid meet" height="857" width="2000" xmlns="http://www.w3.org/2000/svg" xmlns:xlink="http://www.w3.org/1999/xlink"><g id="tight-bounds" transform="matrix(1,0,0,1,-0.1320735874118668,0.18500000000000227)"><svg viewBox="0 0 133.26414717482373 56.629999999999995" height="56.629999999999995" width="133.26414717482373"><g><svg viewBox="0 0 133.26414717482373 56.629999999999995" height="56.629999999999995" width="133.26414717482373"><g><svg viewBox="0 0 133.26414717482373 56.629999999999995" height="56.629999999999995" width="133.26414717482373"><g id="textblocktransform"><svg viewBox="0 0 133.26414717482373 56.629999999999995" height="56.629999999999995" width="133.26414717482373" id="textblock"><g><svg viewBox="0 0 133.26414717482373 56.629999999999995" height="56.629999999999995" width="133.26414717482373"><g><svg><g></g><g></g></svg></g><g><svg><g><svg></svg></g><g></g></svg></g><g id="text-0"><svg viewBox="0 0 133.26414717482373 56.629999999999995" height="56.629999999999995" width="133.26414717482373"><g transform="matrix(1,0,0,1,0,0)"><svg width="63.263799999999996" viewBox="2.3 -35 39.1 35" height="56.629999999999995" data-palette-color="#d69723"><path d="M41.4 0L31.3 0 31.3-2.75 34.5-2.75 34.5-29.2 23.1-6.55 19.7-6.55 8.3-29.2 8.3-2.75 12.4-2.75 12.4 0 2.3 0 2.3-2.75 5.15-2.75 5.15-32.25 2.3-32.25 2.3-35 8.55-35 21.4-9.4 34.25-35 40.85-35 40.85-32.25 37.65-32.25 37.65-2.75 41.4-2.75 41.4 0Z" opacity="1" transform="matrix(1,0,0,1,0,0)" fill="#d69723" class="wordmark-text-0" data-fill-palette-color="primary"></path></svg></g><g><svg xmlns="http://www.w3.org/2000/svg" xmlns:xlink="http://www.w3.org/1999/xlink" version="1.1" x="76.6338" y="0" viewBox="11.323000000000008 11.324 489.35299999999995 489.35" style="enable-background:new 0 0 512 512;" xml:space="preserve" height="56.629999999999995" width="56.63034717482373" class="icon-cg-0" data-fill-palette-color="accent" id="cg-0"><g fill="#0e255c" data-fill-palette-color="accent"><g fill="#0e255c" data-fill-palette-color="accent"><path d="M140.149 121.104c14.633-11.186 24.096-28.812 24.096-48.614 0-33.728-27.438-61.165-61.166-61.165-33.733 0-61.17 27.438-61.17 61.165 0 19.802 9.463 37.428 24.095 48.614-32.179 14.269-54.681 46.513-54.681 83.921V317.17c0 5.628 4.563 10.194 10.195 10.194h30.585V490.48c0 5.633 4.563 10.194 10.195 10.194 5.628 0 10.195-4.562 10.195-10.194V286.585c0-5.634-4.567-10.195-10.195-10.195-5.633 0-10.195 4.562-10.195 10.195v20.39h-20.39v-101.95c0-39.351 32.014-71.365 71.365-71.365 39.351 0 71.36 32.015 71.36 71.365v101.95h-20.39v-20.39c0-5.634-4.562-10.195-10.19-10.195-5.633 0-10.195 4.562-10.195 10.195V490.48c0 5.633 4.562 10.194 10.195 10.194 5.628 0 10.19-4.562 10.19-10.194V327.364h30.585c5.633 0 10.195-4.566 10.195-10.194V205.024C194.83 167.616 172.328 135.373 140.149 121.104zM62.3 72.489c0-22.482 18.293-40.78 40.78-40.78 22.482 0 40.78 18.298 40.78 40.78 0 22.487-18.298 40.78-40.78 40.78C80.593 113.27 62.3 94.976 62.3 72.489z" fill="#0e255c" data-fill-palette-color="accent"></path><path d="M103.08 327.364c-5.633 0-10.195 4.563-10.195 10.195V490.48c0 5.633 4.562 10.194 10.195 10.194 5.628 0 10.195-4.562 10.195-10.194V337.56C113.274 331.927 108.708 327.364 103.08 327.364z" fill="#0e255c" data-fill-palette-color="accent"></path><rect x="92.885" y="194.829" width="20.39" height="20.391" fill="#0e255c" data-fill-palette-color="accent"></rect><path d="M256 11.324c-5.628 0-10.195 4.562-10.195 10.19V490.48c0 5.633 4.567 10.194 10.195 10.194 135.229 0 244.676-109.431 244.676-244.675C500.676 120.77 391.244 11.324 256 11.324zM455.752 357.944h-60.543c8.123-28.558 12.765-59.61 13.577-91.75h71.261C478.567 299.105 469.971 330.193 455.752 357.944zM348.219 95.494c7.127 11.719 13.377 24.519 18.696 38.165h-100.72V32.387C296.854 36.4 325.662 58.444 348.219 95.494zM373.982 154.049c8.616 28.239 13.552 59.367 14.408 91.755H266.195v-91.755H373.982zM266.195 479.612V378.335h100.72c-5.319 13.651-11.569 26.451-18.696 38.165C325.662 453.55 296.854 475.599 266.195 479.612zM266.195 357.944v-91.75h122.195c-0.856 32.383-5.792 63.511-14.408 91.75H266.195zM408.786 245.805c-0.813-32.139-5.454-63.192-13.577-91.755h60.543c14.219 27.756 22.815 58.844 24.295 91.755H408.786zM443.894 133.659h-55.229c-11.476-31.944-29.116-63.964-53.535-87.521C379.983 63.111 418.02 94.064 443.894 133.659zM335.13 465.856c24.424-23.558 42.064-55.582 53.535-87.521h55.229C418.02 417.935 379.983 448.888 335.13 465.856z" fill="#0e255c" data-fill-palette-color="accent"></path></g></g></svg></g></svg></g></svg></g></svg></g></svg></g><g></g></svg></g><defs></defs></svg><rect width="133.26414717482373" height="56.629999999999995" fill="none" stroke="none" visibility="hidden"></rect></g></svg></g></svg>