<svg xmlns="http://www.w3.org/2000/svg" version="1.1" xmlns:xlink="http://www.w3.org/1999/xlink" xmlns:svgjs="http://svgjs.dev/svgjs" width="2000" height="1500" viewBox="0 0 2000 1500"><rect width="2000" height="1500" fill="#000000"></rect><g transform="matrix(0.75,0,0,0.75,249.090909090909,282.7536437246963)"><svg viewBox="0 0 396 247" data-background-color="#000000" preserveAspectRatio="xMidYMid meet" height="1247" width="2000" xmlns="http://www.w3.org/2000/svg" xmlns:xlink="http://www.w3.org/1999/xlink"><g id="tight-bounds" transform="matrix(1,0,0,1,0.2400000000000091,-0.09999999999999432)"><svg viewBox="0 0 395.52 247.2" height="247.2" width="395.52"><g><svg></svg></g><g><svg viewBox="0 0 395.52 247.2" height="247.2" width="395.52"><g><path d="M55.039 247.2l26.403-45.732h3.699l-24.453 42.353h274.144l-24.453-42.353 3.699 0 26.403 45.732zM197.76 0l26.403 45.732-3.698 0-22.705-39.326-22.705 39.326-3.698 0z" fill="#c4f649" fill-rule="nonzero" stroke="none" stroke-width="1" stroke-linecap="butt" stroke-linejoin="miter" stroke-miterlimit="10" stroke-dasharray="" stroke-dashoffset="0" font-family="none" font-weight="none" font-size="none" text-anchor="none" style="mix-blend-mode: normal" data-fill-palette-color="tertiary"></path></g><g transform="matrix(1,0,0,1,36.88487144990492,67.97999999999999)"><svg viewBox="0 0 321.75025710019014 111.24" height="111.24" width="321.75025710019014"><g><svg viewBox="0 0 655.6499675567006 226.68047897875098" height="111.24" width="321.75025710019014"><g><rect width="9.969741858841978" height="221.77076175239475" x="392.8989393319015" y="2.454858613178118" fill="#c4f649" opacity="1" stroke-width="0" stroke="transparent" fill-opacity="1" class="rect-qz-0" data-fill-palette-color="primary" rx="1%" id="qz-0" data-palette-color="#c4f649"></rect></g><g transform="matrix(1,0,0,1,0,20.935755425877673)"><svg viewBox="0 0 366.8001386543047 184.80896812699564" height="184.80896812699564" width="366.8001386543047"><g id="textblocktransform"><svg viewBox="0 0 366.8001386543047 184.80896812699564" height="184.80896812699564" width="366.8001386543047" id="textblock"><g><svg viewBox="0 0 366.8001386543047 110.5525368" height="110.5525368" width="366.8001386543047"><g transform="matrix(1,0,0,1,0,0)"><svg width="366.8001386543047" viewBox="1.5 -36.75 125.24 37.75" height="110.5525368" data-palette-color="#c4f649"><path d="M6.5 0L1.8 0 1.5-1.6Q2.65-2.15 3.93-2.58 5.2-3 6.45-3.35L6.45-3.35 6.5 0ZM14 0L7 0 7.15-3.15 14.05-2.35 14 0ZM34.8 0L30.1 0 29.8-1.6Q30.95-2.15 32.23-2.58 33.5-3 34.75-3.35L34.75-3.35 34.8 0ZM43.5 0L36.5 0 36.65-3.15 43.55-2.35 43.5 0ZM9.8 0L5.85 0 7-32.5 13.05-32.5 9.2-30.1 10.3-21 9.8 0ZM24.25-0.8L19.9 0.35 8.85-30.25 13.05-32.5 23.4-3.65 24.25-0.8ZM35-30.65L24.25-0.8 21.5-1.8 32.4-32.5 35-30.65ZM38.65 0L34.15 0 33.8-21 34.6-30.45 32.4-32.5 38.1-32.5 38.65 0ZM10-32.5L9.85-29.35 2.95-30.15 3-32.5 10-32.5ZM36.9-29.15L36.9-29.15 36.85-32.5 41.55-32.5 41.85-30.9Q40.75-30.4 39.45-29.98 38.15-29.55 36.9-29.15ZM55.7 1L55.7 1Q52.55 1 49.97-0.58 47.4-2.15 45.85-5.03 44.3-7.9 44.3-11.8L44.3-11.8Q44.3-15.8 45.87-18.63 47.45-21.45 50.02-22.93 52.6-24.4 55.6-24.4L55.6-24.4Q58.7-24.4 61.17-22.88 63.65-21.35 65.12-18.48 66.6-15.6 66.6-11.5L66.6-11.5Q66.6-7.35 65.1-4.58 63.6-1.8 61.12-0.4 58.65 1 55.7 1ZM56.25-2.25L56.25-2.25Q57.4-2.25 58.65-2.6L58.65-2.6Q60.05-3.55 60.75-5 61.45-6.45 61.67-8.05 61.9-9.65 61.9-10.95L61.9-10.95Q61.9-13.7 61.22-16.05 60.55-18.4 59.07-19.85 57.6-21.3 55.2-21.3L55.2-21.3Q54.05-21.3 53.05-20.98 52.05-20.65 51.4-20.2L51.4-20.2Q50.1-18.65 49.57-16.53 49.05-14.4 49.05-12.35L49.05-12.35Q49.05-9.75 49.8-7.43 50.55-5.1 52.15-3.68 53.75-2.25 56.25-2.25ZM76.65 0L72.2 0 72.2-34.9 74.65-36.75 76.65-35 76.65 0ZM91.9 0L87.45 0 87.45-14.8Q87.45-17.85 86.5-19.03 85.55-20.2 84.25-20.2L84.25-20.2Q83.25-20.2 81.87-19.63 80.5-19.05 79.05-18.2 77.6-17.35 76.4-16.4L76.4-16.4 75.5-18.5Q77.85-20.15 80.07-21.43 82.3-22.7 84.02-23.45 85.75-24.2 86.65-24.2L86.65-24.2Q87.6-24.05 88.5-23.5 89.4-22.95 90.12-22.25 90.85-21.55 91.2-20.85L91.2-20.85Q91.45-20.4 91.6-19.7 91.75-19 91.82-17.88 91.9-16.75 91.9-15L91.9-15 91.9 0ZM73.1-33.2L68.45-32.85 67.85-35.2Q69.35-35.9 71.22-36.3 73.1-36.7 74.65-36.75L74.65-36.75 75.3-35.5 73.1-33.2ZM72.7 0L68.75 0 68.5-1.65Q69.4-2.1 70.92-2.6 72.45-3.1 73.4-3.35L73.4-3.35 72.7 0ZM79.6 0L74.95 0 75-3.35Q76.3-3.25 77.67-3.03 79.05-2.8 79.9-2.4L79.9-2.4 79.6 0ZM88.8 0L84.85 0 84.6-1.65Q85.5-2.1 87.02-2.6 88.55-3.1 89.5-3.35L89.5-3.35 88.8 0ZM95.2 0L90.55 0 90.6-3.35Q91.9-3.25 93.27-3.03 94.65-2.8 95.5-2.4L95.5-2.4 95.2 0ZM106.04 0L101.59 0 101.59-22.35 104.04-24.2 106.04-22.45 106.04 0ZM101.99 0L98.04 0 97.79-1.65Q98.69-2.1 100.22-2.6 101.74-3.1 102.69-3.35L102.69-3.35 101.99 0ZM109.34 0L104.69 0 104.74-3.35Q106.04-3.25 107.42-3.03 108.79-2.8 109.64-2.4L109.64-2.4 109.34 0ZM102.49-20.65L97.84-20.3 97.24-22.65Q98.74-23.35 100.62-23.75 102.49-24.15 104.04-24.2L104.04-24.2 104.69-22.95 102.49-20.65ZM104.04-28.65L104.04-28.65Q103.09-29.05 101.94-29.93 100.79-30.8 100.19-31.65L100.19-31.65Q100.74-32.8 101.59-33.88 102.44-34.95 103.24-35.45L103.24-35.45Q104.29-35.05 105.37-34.13 106.44-33.2 106.99-32.45L106.99-32.45Q106.64-31.45 105.77-30.35 104.89-29.25 104.04-28.65ZM126.64-2.25L120.14 0.75Q119.09 0.8 117.92 0.2 116.74-0.4 115.92-1.4 115.09-2.4 115.09-3.45L115.09-3.45 115.09-22.75 117.19-29.45 119.54-29.45 119.54-22.35 119.54-6.1Q119.54-4.6 119.89-4 120.24-3.4 121.19-3.4L121.19-3.4Q122.14-3.4 123.42-3.78 124.69-4.15 125.79-4.55L125.79-4.55 126.64-2.25ZM116.24-19.7L111.99-19.6 111.64-22Q113.14-22.7 114.57-23 115.99-23.3 117.29-23.45L117.29-23.45 118.44-22.2 116.24-19.7ZM124.39-19.55L115.99-19.55 115.99-23.4 126.54-23.4 126.74-21.95 124.39-19.55Z" opacity="1" transform="matrix(1,0,0,1,0,0)" fill="#c4f649" class="wordmark-text-0" data-fill-palette-color="primary" id="text-0"></path></svg></g></svg></g><g transform="matrix(1,0,0,1,151.45177725036243,136.6513374775968)"><svg viewBox="0 0 215.34836140394228 48.157630649398854" height="48.157630649398854" width="215.34836140394228"><g transform="matrix(1,0,0,1,0,0)"><svg width="215.34836140394228" viewBox="1.66 -33.89 200.86 44.93" height="48.157630649398854" data-palette-color="#c4f649"><path d="M7.76 0L1.86 0.15Q1.71 0 1.71-0.59L1.71-0.59Q1.71-1.27 1.86-1.27L1.86-1.27Q2.29-1.27 3.03-1.44 3.76-1.61 4.42-1.86 5.08-2.1 5.22-2.39L5.22-2.39Q5.57-2.93 5.57-6.98L5.57-6.98 5.57-25.44Q5.57-26.86 5.49-27.93 5.42-29 5.22-29.64L5.22-29.64Q5.13-29.93 4.47-30.18 3.81-30.42 3.05-30.57 2.29-30.71 1.86-30.71L1.86-30.71Q1.66-30.71 1.66-31.3L1.66-31.3Q1.66-31.93 1.86-32.13L1.86-32.13Q3.13-32.08 4.57-32.06 6.01-32.03 7.67-32.03L7.67-32.03 12.4-32.08Q13.82-32.08 14.75-32.1 15.67-32.13 16.16-32.13L16.16-32.13Q21.48-32.13 25.24-29.96 29-27.78 31.01-24.22 33.01-20.65 33.01-16.41L33.01-16.41Q33.01-11.72 30.98-7.91 28.96-4.1 25.17-1.9 21.39 0.29 16.11 0.15L16.11 0.15 12.65 0.05Q11.18 0 9.96-0.02 8.74-0.05 7.76 0L7.76 0ZM16.89-2.1L16.89-2.1Q28.13-2.1 28.13-16.6L28.13-16.6Q28.13-20.31 26.81-23.34 25.49-26.37 22.92-28.17 20.36-29.98 16.55-29.98L16.55-29.98 16.31-29.98Q11.04-29.98 10.45-29.2L10.45-29.2Q9.81-28.37 9.81-26.12L9.81-26.12 9.81-6.79Q9.81-4.79 10.55-3.08L10.55-3.08Q10.64-2.83 11.38-2.66 12.11-2.49 13.16-2.37 14.21-2.25 15.23-2.17 16.26-2.1 16.89-2.1ZM46.92 0.29L46.92 0.29Q44.24 0.29 41.99-1.12 39.74-2.54 38.4-4.91 37.06-7.28 37.06-10.21L37.06-10.21Q37.06-13.62 38.33-16.11 39.6-18.6 41.79-19.95 43.99-21.29 46.73-21.29L46.73-21.29Q48.97-21.29 50.68-20.43 52.39-19.58 53.32-18.26L53.32-18.26Q54.2-16.89 54.61-15.5 55.03-14.11 55.03-12.74L55.03-12.74Q55.03-11.77 54.73-11.55 54.44-11.33 53.61-11.33L53.61-11.33 41.31-11.33Q40.92-11.33 40.92-11.08L40.92-11.08Q40.92-9.03 41.75-7.15 42.58-5.27 44.19-4.05 45.8-2.83 48.14-2.83L48.14-2.83Q50.19-2.83 51.58-3.44 52.98-4.05 53.61-4.54L53.61-4.54 53.95-4.79Q54.25-4.79 54.25-4.15L54.25-4.15Q54.25-3.81 53.95-3.27L53.95-3.27Q52.98-1.9 51.07-0.81 49.17 0.29 46.92 0.29ZM41.31-13.38L41.31-13.38 50.83-13.38Q51.07-13.38 51.07-13.87L51.07-13.87Q51.07-14.94 50.51-16.24 49.95-17.53 48.83-18.51 47.7-19.48 45.99-19.48L45.99-19.48Q44.43-19.48 43.31-18.43 42.19-17.38 41.6-16.04 41.01-14.7 41.01-13.72L41.01-13.72Q41.01-13.38 41.31-13.38ZM67.77 0.34L67.77 0.34Q67.38-0.59 66.47-2.69 65.57-4.79 64.16-8.06L64.16-8.06Q62.74-11.38 61.52-14.04 60.3-16.7 59.22-18.8L59.22-18.8Q58.69-19.78 56.34-19.78L56.34-19.78Q56.15-19.78 56.15-20.41L56.15-20.41Q56.15-21 56.34-21.19L56.34-21.19Q57.61-21.14 58.88-21.04 60.15-20.95 61.42-20.95L61.42-20.95Q62.64-20.95 63.86-21.04 65.08-21.14 66.3-21.19L66.3-21.19Q66.4-21 66.33-20.39 66.25-19.78 66.11-19.78L66.11-19.78Q63.72-19.78 63.72-18.95L63.72-18.95Q63.72-18.9 63.76-18.77 63.81-18.65 63.86-18.55L63.86-18.55 69.62-5.52 74.56-16.75Q74.8-17.24 74.87-17.6 74.95-17.97 74.95-18.21L74.95-18.21Q74.95-19.78 71.43-19.78L71.43-19.78Q71.24-19.78 71.24-20.41L71.24-20.41Q71.24-21 71.43-21.19L71.43-21.19Q71.97-21.14 73.43-21.02 74.9-20.9 76.07-20.95L76.07-20.95 80.95-21.19Q81.05-20.8 81.05-20.46L81.05-20.46Q81.05-19.78 80.71-19.78L80.71-19.78Q80.02-19.78 78.9-19.38 77.78-18.99 77.39-18.12L77.39-18.12 69.62-0.59Q69.28 0.2 68.6 0.42 67.91 0.63 67.77 0.34ZM91.98 0.29L91.98 0.29Q89.3 0.29 87.05-1.12 84.81-2.54 83.46-4.91 82.12-7.28 82.12-10.21L82.12-10.21Q82.12-13.62 83.39-16.11 84.66-18.6 86.86-19.95 89.06-21.29 91.79-21.29L91.79-21.29Q94.04-21.29 95.74-20.43 97.45-19.58 98.38-18.26L98.38-18.26Q99.26-16.89 99.68-15.5 100.09-14.11 100.09-12.74L100.09-12.74Q100.09-11.77 99.8-11.55 99.5-11.33 98.67-11.33L98.67-11.33 86.37-11.33Q85.98-11.33 85.98-11.08L85.98-11.08Q85.98-9.03 86.81-7.15 87.64-5.27 89.25-4.05 90.86-2.83 93.21-2.83L93.21-2.83Q95.26-2.83 96.65-3.44 98.04-4.05 98.67-4.54L98.67-4.54 99.02-4.79Q99.31-4.79 99.31-4.15L99.31-4.15Q99.31-3.81 99.02-3.27L99.02-3.27Q98.04-1.9 96.14-0.81 94.23 0.29 91.98 0.29ZM86.37-13.38L86.37-13.38 95.89-13.38Q96.14-13.38 96.14-13.87L96.14-13.87Q96.14-14.94 95.57-16.24 95.01-17.53 93.89-18.51 92.77-19.48 91.06-19.48L91.06-19.48Q89.49-19.48 88.37-18.43 87.25-17.38 86.66-16.04 86.08-14.7 86.08-13.72L86.08-13.72Q86.08-13.38 86.37-13.38ZM107.56-0.1L102.24 0.15Q102.04-0.05 102.04-0.68L102.04-0.68Q102.04-1.27 102.24-1.27L102.24-1.27Q102.63-1.27 103.31-1.42 103.99-1.56 104.58-1.81 105.17-2.05 105.21-2.25L105.21-2.25Q105.41-2.93 105.48-3.81 105.56-4.69 105.56-5.66L105.56-5.66 105.56-26.81Q105.56-28.47 105.26-29.93L105.26-29.93Q105.07-30.71 102.77-30.71L102.77-30.71 102.33-30.71Q102.04-30.71 102.04-31.25L102.04-31.25Q102.04-32.03 102.33-32.03L102.33-32.03Q105.26-32.37 106.68-32.81 108.1-33.25 108.63-33.59L108.63-33.59 109.12-33.89 109.22-33.89Q109.41-33.89 109.61-33.62 109.8-33.35 109.85-33.11L109.85-33.11Q109.32-31.49 109.32-28.86L109.32-28.86 109.32-6.59Q109.32-5.18 109.41-4.1 109.51-3.03 109.71-2.25L109.71-2.25Q109.8-2.05 110.39-1.81 110.98-1.56 111.66-1.42 112.34-1.27 112.64-1.27L112.64-1.27Q112.78-1.27 112.83-0.68 112.88-0.1 112.78 0.15L112.78 0.15 107.56-0.1ZM126.06 0.34L126.06 0.34Q123.13 0.34 120.69-1.12 118.25-2.59 116.81-5.08 115.37-7.57 115.37-10.55L115.37-10.55Q115.37-13.57 116.76-16.02 118.15-18.46 120.54-19.9 122.94-21.34 125.96-21.34L125.96-21.34Q128.89-21.34 131.31-19.87 133.73-18.41 135.17-15.97 136.61-13.53 136.61-10.55L136.61-10.55Q136.61-7.57 135.19-5.08 133.78-2.59 131.41-1.12 129.04 0.34 126.06 0.34ZM126.5-1.56L126.5-1.56Q128.26-1.56 129.58-2.69 130.9-3.81 131.65-5.71 132.41-7.62 132.41-9.86L132.41-9.86Q132.41-12.5 131.43-14.67 130.46-16.85 128.87-18.14 127.28-19.43 125.43-19.43L125.43-19.43Q123.72-19.43 122.38-18.33 121.03-17.24 120.3-15.41 119.57-13.57 119.57-11.28L119.57-11.28Q119.57-8.64 120.52-6.42 121.47-4.2 123.06-2.88 124.65-1.56 126.5-1.56ZM144.81 10.79L139.49 11.04Q139.29 10.84 139.29 10.25L139.29 10.25Q139.29 9.62 139.49 9.62L139.49 9.62Q139.88 9.62 140.56 9.47 141.24 9.33 141.83 9.08 142.42 8.84 142.47 8.64L142.47 8.64Q142.66 7.96 142.73 7.08 142.81 6.2 142.81 5.22L142.81 5.22 142.81-14.94Q142.81-16.8 142.12-17.58L142.12-17.58Q141.64-18.16 140.98-18.36 140.32-18.55 139.8-18.58 139.29-18.6 139.29-18.7L139.29-18.7Q139.29-19.87 139.58-19.92L139.58-19.92Q144.76-20.7 146.23-21.14L146.23-21.14 146.57-21.24Q146.81-21.24 146.76-20.73 146.71-20.21 146.66-19.87L146.66-19.87 146.62-19.58Q147.1-19.92 147.98-20.31 148.86-20.7 149.86-21 150.86-21.29 151.6-21.29L151.6-21.29Q154.92-21.29 157.14-19.8 159.36-18.31 160.46-16.04 161.56-13.77 161.56-11.43L161.56-11.43Q161.56-9.08 160.68-6.96 159.8-4.83 158.29-3.17 156.77-1.51 154.84-0.56 152.91 0.39 150.86 0.39L150.86 0.39Q149.35 0.39 148.57 0.17 147.79-0.05 146.76-0.54L146.76-0.54Q146.57-0.34 146.57 0.1L146.57 0.1 146.57 4.3Q146.57 5.71 146.66 6.79 146.76 7.86 146.96 8.64L146.96 8.64Q147.06 8.84 147.64 9.08 148.23 9.33 148.91 9.47 149.59 9.62 149.89 9.62L149.89 9.62Q150.03 9.62 150.08 10.23 150.13 10.84 150.03 11.04L150.03 11.04 144.81 10.79ZM151.06-1.66L151.06-1.66Q153.01-1.66 154.4-2.86 155.8-4.05 156.58-5.98 157.36-7.91 157.36-10.06L157.36-10.06Q157.36-12.79 156.36-14.77 155.36-16.75 153.7-17.82 152.04-18.9 150.03-18.9L150.03-18.9Q148.52-18.9 147.54-18.09 146.57-17.29 146.57-15.77L146.57-15.77 146.57-4.79Q146.57-3.47 147.98-2.56 149.4-1.66 151.06-1.66ZM175.08 0.29L175.08 0.29Q172.39 0.29 170.15-1.12 167.9-2.54 166.56-4.91 165.22-7.28 165.22-10.21L165.22-10.21Q165.22-13.62 166.49-16.11 167.76-18.6 169.95-19.95 172.15-21.29 174.88-21.29L174.88-21.29Q177.13-21.29 178.84-20.43 180.55-19.58 181.48-18.26L181.48-18.26Q182.36-16.89 182.77-15.5 183.19-14.11 183.19-12.74L183.19-12.74Q183.19-11.77 182.89-11.55 182.6-11.33 181.77-11.33L181.77-11.33 169.46-11.33Q169.07-11.33 169.07-11.08L169.07-11.08Q169.07-9.03 169.9-7.15 170.73-5.27 172.35-4.05 173.96-2.83 176.3-2.83L176.3-2.83Q178.35-2.83 179.74-3.44 181.13-4.05 181.77-4.54L181.77-4.54 182.11-4.79Q182.4-4.79 182.4-4.15L182.4-4.15Q182.4-3.81 182.11-3.27L182.11-3.27Q181.13-1.9 179.23-0.81 177.33 0.29 175.08 0.29ZM169.46-13.38L169.46-13.38 178.99-13.38Q179.23-13.38 179.23-13.87L179.23-13.87Q179.23-14.94 178.67-16.24 178.11-17.53 176.98-18.51 175.86-19.48 174.15-19.48L174.15-19.48Q172.59-19.48 171.47-18.43 170.34-17.38 169.76-16.04 169.17-14.7 169.17-13.72L169.17-13.72Q169.17-13.38 169.46-13.38ZM191.53-0.1L186.21 0.15Q186.02-0.05 186.02-0.68L186.02-0.68Q186.02-1.27 186.21-1.27L186.21-1.27Q186.6-1.27 187.28-1.42 187.97-1.56 188.55-1.81 189.14-2.05 189.19-2.25L189.19-2.25Q189.38-2.93 189.46-3.81 189.53-4.69 189.53-5.66L189.53-5.66 189.53-14.89Q189.53-16.75 188.85-17.53L188.85-17.53Q188.36-18.12 187.7-18.31 187.04-18.51 186.53-18.53 186.02-18.55 186.02-18.65L186.02-18.65Q186.02-19.82 186.31-19.87L186.31-19.87Q191.63-20.7 192.46-20.95L192.46-20.95 193.29-21.19Q193.49-21.24 193.53-20.8 193.58-20.36 193.53-20.17L193.53-20.17 193.24-17.72Q194.12-19.04 195.66-20.19 197.2-21.34 198.71-21.34L198.71-21.34Q201.54-21.34 202.52-19.92L202.52-19.92Q202.52-18.21 201.98-17.43 201.44-16.65 200.66-16.65L200.66-16.65Q199.78-16.65 199.05-17.48L199.05-17.48Q198.32-18.31 197.05-18.31L197.05-18.31Q196.07-18.31 195.19-17.65 194.32-16.99 193.8-15.99 193.29-14.99 193.29-13.92L193.29-13.92 193.29-6.59Q193.29-5.18 193.39-4.1 193.49-3.03 193.68-2.25L193.68-2.25Q193.78-2.05 194.36-1.81 194.95-1.56 195.66-1.42 196.37-1.27 196.66-1.27L196.66-1.27Q196.81-1.27 196.86-0.68 196.9-0.1 196.81 0.15L196.81 0.15 191.53-0.1Z" opacity="1" transform="matrix(1,0,0,1,0,0)" fill="#c4f649" class="slogan-text-1" data-fill-palette-color="secondary" id="text-1"></path></svg></g></svg></g></svg></g></svg></g><g transform="matrix(1,0,0,1,428.96748186834026,0)"><svg viewBox="0 0 226.68248568836032 226.68047897875098" height="226.68047897875098" width="226.68248568836032"><g><svg xmlns="http://www.w3.org/2000/svg" viewBox="2 2.000435584826344 60.000095566788524 59.99956441517366" x="0" y="0" height="226.68047897875098" width="226.68248568836032" class="icon-icon-0" data-fill-palette-color="accent" id="icon-0"><g fill="#c4f649" data-fill-palette-color="accent"><circle cx="28" cy="23" r="1.0" fill="#c4f649" data-fill-palette-color="accent"></circle><circle cx="36" cy="23" r="1.0" fill="#c4f649" data-fill-palette-color="accent"></circle><path d="M29.553 31.9a5.5 5.5 0 0 0 4.894 0 1 1 0 1 0-0.894-1.79 3.484 3.484 0 0 1-3.106 0 1 1 0 0 0-0.894 1.79Z" fill="#c4f649" data-fill-palette-color="accent"></path><path d="M17 49a3 3 0 1 0-3 3A3 3 0 0 0 17 49Zm-3 1a1 1 0 1 1 1-1A1 1 0 0 1 14 50Z" fill="#c4f649" data-fill-palette-color="accent"></path><path d="M61 47H52a3.959 3.959 0 0 0-2 0.556V41a7.042 7.042 0 0 0-5.379-6.8A3.823 3.823 0 0 0 41.173 32h-0.708A8.929 8.929 0 0 0 41 29V27h0.5a3.5 3.5 0 0 0 0-7H41V15a5.006 5.006 0 0 0-5-5H21a1 1 0 0 0-0.986 1.165l0.721 4.328A2.983 2.983 0 0 0 23 17.91V20h-0.5a3.5 3.5 0 0 0 0 7H23v2a8.929 8.929 0 0 0 0.535 3H22.83a3.837 3.837 0 0 0-3.46 2.2A7.048 7.048 0 0 0 14.08 40H3a1 1 0 0 0-1 1V57a0.982 0.982 0 0 0 0.1 0.416A1.985 1.985 0 0 0 2 58v2a2 2 0 0 0 2 2H60a2 2 0 0 0 2-2V58a1.983 1.983 0 0 0-0.513-1.324A2.982 2.982 0 0 0 62 55V48A1 1 0 0 0 61 47ZM41 22h0.5a1.5 1.5 0 0 1 0 3H41ZM23 25h-0.5a1.5 1.5 0 0 1 0-3H23ZM54 54V49h6v6a1 1 0 0 1-1 1H55a1 1 0 0 1-1-1Zm-2-5v4a2 2 0 0 1 0-4Zm-3.015 6.987c0.1-0.127 0.185-0.257 0.269-0.393s0.148-0.261 0.215-0.4 0.137-0.283 0.193-0.432 0.092-0.278 0.131-0.421l0-0.011A3.968 3.968 0 0 0 52 55a2.966 2.966 0 0 0 0.184 1H48.976ZM45 39.173V36.444A5.017 5.017 0 0 1 48 41v3H41a1 1 0 0 0-1 1v5H32a4.991 4.991 0 0 0-4 2H25V43h1a0.987 0.987 0 0 0 0.962-0.81 7.916 7.916 0 0 0 10.076 0A0.987 0.987 0 0 0 38 43h3.173A3.832 3.832 0 0 0 45 39.173ZM44 50H42V46h6v7a3 3 0 0 1-0.049 0.486 2.964 2.964 0 0 1-0.086 0.355c-0.02 0.068-0.038 0.136-0.062 0.2a3.093 3.093 0 0 1-0.134 0.3c-0.034 0.068-0.07 0.136-0.109 0.2a3.089 3.089 0 0 1-0.179 0.261c-0.046 0.061-0.095 0.12-0.145 0.177a3.173 3.173 0 0 1-0.222 0.227c-0.056 0.051-0.115 0.1-0.174 0.144a3.122 3.122 0 0 1-0.258 0.186c-0.068 0.043-0.14 0.078-0.211 0.115a2.855 2.855 0 0 1-0.273 0.132 2.769 2.769 0 0 1-0.285 0.089c-0.081 0.023-0.16 0.052-0.244 0.069A3.049 3.049 0 0 1 45 56H29V55a3.009 3.009 0 0 1 3-3H44a1 1 0 0 0 0-2ZM27.111 54A5 5 0 0 0 27 55v1H25V54ZM28.48 18h7.04L39 22.35v3.236L36.956 27.63a7.757 7.757 0 0 0-4.52-1.608l-0.219-0.219 0.678-1.356a1 1 0 0 0-1.79-0.894l-1 2a0.992 0.992 0 0 0-0.069 0.678 7.741 7.741 0 0 0-2.992 1.4L25 25.586V22.35ZM25 19.149V18h0.919ZM38.081 18H39v1.149ZM26.293 29.707a1 1 0 0 0 1.414 0A5.789 5.789 0 0 1 31.829 28h0.342a5.789 5.789 0 0 1 4.122 1.707 1 1 0 0 0 1.414 0L39 28.414V29a6.9 6.9 0 0 1-0.7 3H38a1 1 0 0 0-1 1v0.878c-0.122 0.126-0.24 0.256-0.371 0.371a7 7 0 0 1-9.258 0c-0.131-0.116-0.249-0.246-0.371-0.372V33a1 1 0 0 0-1-1h-0.3a6.9 6.9 0 0 1-0.7-3v-0.586ZM37 36.47v2.823a5.971 5.971 0 0 1-10 0V36.47a8.935 8.935 0 0 0 10 0ZM41.173 34A1.83 1.83 0 0 1 43 35.827v3.346A1.83 1.83 0 0 1 41.173 41H39V34ZM22.708 15.164L22.181 12H36a3 3 0 0 1 3 3v1H23.694A1 1 0 0 1 22.708 15.164ZM21 35.83a1.785 1.785 0 0 1 0.073-0.493A1.83 1.83 0 0 1 22.83 34H25v7a1 1 0 0 0-1-1H21.21a1.79 1.79 0 0 1-0.21-0.83Zm-2 0.614V39.17a3.787 3.787 0 0 0 0.1 0.83H16.111A5.03 5.03 0 0 1 19 36.444ZM4 42H23V56H4ZM4 60V58H60v2Z" fill="#c4f649" data-fill-palette-color="accent"></path><path d="M53 45h2c0-0.562 0.217-0.8 0.707-1.293a3.48 3.48 0 0 0 0-5.414C55.217 37.8 55 37.562 55 37H53a3.563 3.563 0 0 0 1.293 2.707c0.49 0.49 0.707 0.731 0.707 1.293s-0.217 0.8-0.707 1.293A3.563 3.563 0 0 0 53 45Z" fill="#c4f649" data-fill-palette-color="accent"></path><path d="M60 37H58a3.563 3.563 0 0 0 1.293 2.707c0.49 0.49 0.707 0.731 0.707 1.293s-0.217 0.8-0.707 1.293A3.563 3.563 0 0 0 58 45h2c0-0.562 0.217-0.8 0.707-1.293a3.48 3.48 0 0 0 0-5.414C60.217 37.8 60 37.562 60 37Z" fill="#c4f649" data-fill-palette-color="accent"></path><path d="M60.725 2.039l-7 2A1 1 0 0 0 53 5v6H52a3 3 0 1 0 3 3V9.754l5-1.428V11H59a3 3 0 1 0 3 3V3a1 1 0 0 0-1.275-0.961ZM53 14a1 1 0 1 1-1-1h1Zm7 0a1 1 0 1 1-1-1h1Zm0-9V6.246L55 7.674V5.754l5-1.428Z" fill="#c4f649" data-fill-palette-color="accent"></path><path d="M5 30a3 3 0 0 0 3-3V20.721l2.316-0.772a1 1 0 1 0-0.632-1.9l-3 1A1 1 0 0 0 6 20v4H5a3 3 0 0 0 0 6Zm0-4H6v1a1 1 0 1 1-1-1Z" fill="#c4f649" data-fill-palette-color="accent"></path><path d="M51 31a3 3 0 0 0 3-3V21.721l2.316-0.772a1 1 0 1 0-0.632-1.9l-3 1A1 1 0 0 0 52 21v4H51a3 3 0 0 0 0 6Zm0-4h1v1a1 1 0 1 1-1-1Z" fill="#c4f649" data-fill-palette-color="accent"></path></g></svg></g></svg></g></svg></g></svg></g></svg></g><defs></defs></svg><rect width="395.52" height="247.2" fill="none" stroke="none" visibility="hidden"></rect></g></svg></g></svg>